<?xml version="1.0" standalone="no"?>
<!DOCTYPE svg PUBLIC "-//W3C//DTD SVG 20010904//EN"
 "http://www.w3.org/TR/2001/REC-SVG-20010904/DTD/svg10.dtd">
<svg version="1.0" xmlns="http://www.w3.org/2000/svg"
 width="1249.000000pt" height="1280.000000pt" viewBox="0 0 1249.000000 1280.000000"
 preserveAspectRatio="xMidYMid meet">
<metadata>
Created by potrace 1.15, written by Peter Selinger 2001-2017
</metadata>
<g transform="translate(0.000000,1280.000000) scale(0.100000,-0.100000)"
fill="#000000" stroke="none">
<path d="M6365 12790 c-520 -12 -953 -60 -1271 -140 -265 -67 -905 -169 -1315
-210 -353 -35 -442 -36 -624 -6 -197 33 -442 85 -640 136 -181 47 -325 74
-505 96 -186 23 -567 23 -755 0 -454 -56 -865 -179 -1161 -348 -180 -102 -118
-184 293 -392 197 -100 452 -246 698 -401 217 -136 242 -154 337 -244 213
-202 276 -332 265 -546 l-5 -100 -140 -355 c-77 -195 -207 -524 -290 -730
-272 -681 -459 -1246 -608 -1834 -65 -258 -127 -711 -145 -1076 -33 -634 30
-1438 167 -2125 56 -283 286 -1025 408 -1319 373 -892 929 -1736 1630 -2470
369 -388 439 -450 650 -576 104 -62 301 -153 323 -148 9 2 -18 24 -63 53 -193
122 -323 232 -633 538 -808 798 -1405 1673 -1813 2657 -321 775 -492 1469
-562 2285 -44 508 -40 1161 10 1600 28 247 68 455 134 705 49 183 280 879 353
1065 165 417 211 507 295 571 64 48 100 46 146 -8 53 -62 79 -137 84 -243 3
-82 0 -100 -33 -205 -104 -325 -143 -475 -215 -821 -117 -559 -170 -893 -235
-1469 -21 -179 -40 -513 -32 -535 12 -30 28 -4 48 82 31 126 116 557 139 703
93 583 326 1256 671 1940 204 404 369 681 537 899 513 666 1212 1307 1802
1653 343 201 803 383 1142 452 196 40 931 46 1302 11 93 -9 185 -14 205 -13
l36 4 -39 18 c-22 10 -69 24 -105 32 -331 75 -443 113 -649 219 -153 79 -182
108 -182 179 0 53 28 98 74 120 135 64 401 92 576 62 52 -10 165 -28 250 -42
559 -88 1025 -216 1640 -451 400 -153 658 -282 950 -476 327 -218 692 -552
808 -739 65 -105 122 -240 122 -291 0 -70 -40 -121 -125 -157 -44 -20 -63 -21
-160 -17 -189 8 -222 20 -810 309 -577 284 -698 339 -940 428 -554 202 -1096
295 -1845 316 -465 14 -979 -42 -1470 -160 -185 -44 -486 -170 -728 -304 -119
-65 -432 -269 -487 -316 l-30 -26 45 16 c25 9 119 52 210 96 443 216 752 305
1175 339 277 22 753 -18 1138 -97 586 -119 1195 -353 1672 -642 251 -152 696
-555 984 -890 139 -161 182 -188 284 -178 140 14 427 18 528 7 205 -24 446
-88 589 -159 144 -71 306 -213 397 -347 80 -119 185 -351 208 -462 21 -99 19
-251 -5 -351 -22 -93 -77 -218 -106 -244 -52 -46 -90 -31 -334 130 -80 52
-182 114 -228 138 -136 70 -337 136 -454 150 -49 6 -57 4 -86 -20 -37 -32 -50
-82 -32 -127 19 -44 44 -56 135 -63 184 -15 357 -65 550 -161 112 -56 144 -77
230 -156 55 -51 165 -151 245 -223 80 -71 215 -198 301 -281 170 -165 320
-289 474 -394 114 -77 273 -171 325 -191 54 -22 100 -50 110 -70 11 -21 0 -60
-21 -76 -39 -31 -187 -44 -264 -23 -22 6 -218 99 -435 208 -217 108 -494 242
-615 297 -121 54 -278 130 -348 168 -293 157 -644 304 -992 417 -121 39 -251
81 -290 94 -38 12 -164 60 -280 105 -288 112 -537 203 -820 300 -255 87 -425
153 -567 218 -106 49 -124 75 -115 161 14 129 83 349 182 581 101 237 145 387
176 607 21 155 6 135 -116 -150 -79 -186 -196 -440 -280 -608 -55 -110 -234
-381 -495 -749 -147 -209 -313 -408 -599 -720 -163 -177 -739 -753 -911 -909
-206 -188 -592 -494 -915 -725 -122 -88 -155 -106 -180 -104 -17 2 -31 9 -33
19 -2 9 40 57 99 115 275 269 1256 1438 1551 1850 344 479 636 1029 837 1577
49 134 61 187 42 187 -15 0 -184 -228 -307 -415 -159 -242 -245 -323 -416
-392 -129 -52 -306 -64 -398 -26 -74 30 -120 100 -120 183 0 39 9 68 39 129
95 188 248 410 386 559 133 143 304 265 482 342 91 40 143 73 143 91 0 18
-132 154 -182 187 -273 184 -548 258 -1008 269 -410 10 -568 -17 -1107 -187
-360 -114 -981 -486 -1364 -817 -234 -203 -602 -613 -673 -750 -18 -35 -21
-73 -7 -73 5 0 85 77 178 171 287 292 524 484 827 671 209 129 442 219 726
282 286 63 517 77 630 38 207 -71 327 -211 338 -391 9 -156 -57 -281 -249
-469 -153 -150 -363 -278 -550 -336 -295 -90 -365 -109 -473 -131 -218 -44
-444 -56 -662 -34 -105 10 -115 13 -259 80 -183 86 -197 89 -232 58 -30 -28
-206 -289 -313 -464 -367 -602 -606 -1155 -836 -1937 -83 -284 -157 -780 -170
-1148 -7 -181 6 -339 52 -620 72 -452 155 -746 302 -1080 215 -486 250 -553
404 -786 297 -447 378 -551 575 -744 98 -96 232 -220 298 -275 66 -54 141
-119 167 -142 48 -44 113 -81 124 -71 3 3 -21 32 -53 64 -32 33 -99 106 -148
162 -50 57 -101 110 -115 117 -31 16 -94 78 -129 125 -14 19 -49 62 -77 95
-126 148 -336 445 -482 685 -80 132 -224 420 -281 565 -168 422 -265 814 -312
1265 -18 171 -14 619 6 755 42 279 136 679 200 855 83 222 214 528 305 709
122 245 555 784 800 999 253 221 522 386 846 516 87 35 218 89 290 119 322
135 639 203 996 214 l186 6 25 -25 c16 -16 24 -33 21 -49 -40 -253 -82 -422
-179 -719 -152 -471 -237 -646 -486 -1000 -414 -590 -795 -1020 -1307 -1474
-77 -69 -122 -115 -120 -125 3 -13 18 -16 92 -14 92 2 214 28 320 68 34 12 81
26 106 30 281 44 625 184 879 357 68 46 150 101 184 122 245 154 325 211 483
345 55 48 182 151 283 230 376 297 711 597 943 845 268 286 583 669 763 928
33 48 70 91 82 97 31 14 74 5 160 -34 67 -31 76 -39 141 -127 126 -171 364
-521 449 -663 88 -146 233 -426 304 -586 168 -380 286 -851 296 -1179 5 -167
8 -190 28 -190 18 0 41 74 100 315 126 519 212 1077 254 1659 9 113 13 131 33
153 21 23 28 25 78 19 67 -7 414 -122 645 -213 94 -37 289 -127 435 -199 146
-73 339 -166 430 -207 269 -122 617 -290 900 -433 278 -141 342 -164 450 -164
127 0 277 56 361 133 70 65 140 301 143 482 l1 100 -73 134 c-40 74 -112 195
-160 270 -94 147 -164 306 -245 556 -82 253 -86 275 -97 523 -6 125 -14 270
-20 322 -5 52 -9 177 -9 277 -1 358 -63 649 -196 921 -224 458 -487 826 -873
1223 -287 295 -583 544 -902 759 -190 128 -560 343 -765 445 -481 238 -890
377 -1320 450 -82 13 -165 29 -183 34 -54 16 -239 50 -362 66 -146 20 -481 25
-915 15z"/>
<path d="M9781 9006 c-15 -18 -5 -58 21 -86 12 -12 51 -42 87 -65 36 -24 85
-63 108 -87 47 -49 194 -248 246 -335 66 -108 276 -227 500 -283 84 -21 89
-21 108 -4 12 11 19 30 19 55 0 33 -9 48 -64 110 -36 39 -85 105 -109 147 -88
151 -214 277 -362 365 -38 23 -90 57 -115 76 -58 44 -153 87 -233 106 -81 19
-191 20 -206 1z m509 -277 c79 -42 178 -125 239 -201 62 -76 117 -178 108
-201 -36 -93 -301 94 -391 276 -45 92 -58 157 -31 157 9 0 43 -14 75 -31z"/>
</g>
</svg>
