<?xml version="1.0" encoding="iso-8859-1"?>
<!-- Generator: Adobe Illustrator 19.0.0, SVG Export Plug-In . SVG Version: 6.00 Build 0)  -->
<svg version="1.1" id="Capa_1" xmlns="http://www.w3.org/2000/svg" xmlns:xlink="http://www.w3.org/1999/xlink" x="0px" y="0px"
	 viewBox="0 0 488.9 488.9" style="enable-background:new 0 0 488.9 488.9;" xml:space="preserve">
<g>
	<g>
		<path d="M389,61.75h-90.6c-55.2,0-99.9,44.7-99.9,99.9c0,44.1,28.7,81.5,68.3,94.7v47.6c0,4.4,5.3,6.6,8.5,3.5l45.9-45.9H389
			c55.2,0,99.9-44.7,99.9-99.9C488.9,106.45,444.1,61.75,389,61.75z M315,174.05h-24.7v-24.7H315V174.05z M356,174.05h-24.7v-24.7
			H356V174.05z M397.1,174.05h-24.7v-24.7h24.7V174.05z"/>
		<path d="M58.8,130.05c-16.7,0-30.3,13.6-30.3,30.3v212.7H27H0v20.6c0,18.5,15,33.5,33.5,33.5h32.1H367h32.1
			c18.5,0,33.5-15,33.5-33.5v-20.6h-27h-1.5v-87c-4.9,0.6-9.9,1-14.9,1h-26.4v86H256.7v2c0,6.3-5.1,11.5-11.5,11.5h-58.1
			c-6.3,0-11.5-5.1-11.5-11.5v-2H69.8v-201.7h103.5c-0.3-3.2-0.4-6.5-0.4-9.8c0-10.9,1.6-21.5,4.2-31.6H58.8V130.05z"/>
	</g>
</g>
<g>
</g>
<g>
</g>
<g>
</g>
<g>
</g>
<g>
</g>
<g>
</g>
<g>
</g>
<g>
</g>
<g>
</g>
<g>
</g>
<g>
</g>
<g>
</g>
<g>
</g>
<g>
</g>
<g>
</g>
</svg>
